<svg id="레이어_1" data-name="레이어 1" xmlns="http://www.w3.org/2000/svg" viewBox="0 0 322.25 300"><defs><style>.cls-1{fill:#ebcfc2;}</style></defs><path class="cls-1" d="M322.25,225.92c0,40.91-40.21,74.08-89.8,74.08-25.06,0-47.66-8.51-63.93-22.18a11.32,11.32,0,0,0-14.78,0C137.46,291.49,114.86,300,89.8,300,40.21,300,0,266.83,0,225.92c0-17.19,7.11-33,19-45.56a16.71,16.71,0,0,0,0-22.67A66,66,0,0,1,1.28,112.85c0-37.77,32.35-68.38,72.25-68.38A76.37,76.37,0,0,1,88.84,46c7.27,1.5,14.34-2.36,17.5-9.36C116.09,15,137.12,0,161.52,0s45.37,15,55.14,36.55a15.7,15.7,0,0,0,17.39,9.34,76.21,76.21,0,0,1,14.68-1.42c39.9,0,72.24,30.61,72.24,68.38a65.93,65.93,0,0,1-17.74,44.84,16.71,16.71,0,0,0,0,22.67C315.16,192.92,322.25,208.73,322.25,225.92Z" transform="translate(0 0)"/></svg>