<?xml version="1.0" encoding="utf-8"?>
<!-- Generator: Adobe Illustrator 25.0.1, SVG Export Plug-In . SVG Version: 6.00 Build 0)  -->
<svg version="1.1" id="레이어_1" xmlns="http://www.w3.org/2000/svg" xmlns:xlink="http://www.w3.org/1999/xlink" x="0px"
	 y="0px" viewBox="0 0 580 230" style="enable-background:new 0 0 580 230;" xml:space="preserve">
<style type="text/css">
	.st0{fill:none;stroke:#F4F0EA;stroke-width:1.0497;stroke-miterlimit:10;}
	.st1{font-family:'Pretendard-SemiBold-KSCpc-EUC-H';}
	.st2{font-size:12.5967px;}
	.st3{opacity:0.2;fill:#232323;}
	.st4{font-size:9.4475px;}
	.st5{opacity:0.2;}
	.st6{fill:#D33562;}
	.st7{fill:#0080A7;}
</style>
<g>
	<line class="st0" x1="288.3" y1="30.9" x2="288.3" y2="199.1"/>
	<g>
		<text transform="matrix(1 0 0 1 10.8569 32.6758)" class="st1 st2">Photoshop</text>
		<text transform="matrix(1 0 0 1 11.0728 48.0376)" class="st3 st1 st4">포토샵(사진/그림)</text>
	</g>
	<text transform="matrix(1 0 0 1 322.5859 120.9297)" class="st3 st1 st4">(구조 및 스타일)</text>
	<g>
		<text transform="matrix(1 0 0 1 11.0728 124.3242)" class="st3 st1 st4">일러스트(그래픽)</text>
		<text transform="matrix(1 0 0 1 10.8569 109.168)" class="st1 st2">Illustrator</text>
	</g>
	<g>
		<text transform="matrix(1 0 0 1 11.0728 200.627)" class="st3 st1 st4">에펙/프리미어(영상)</text>
		<text transform="matrix(1 0 0 1 10.8569 185.6445)" class="st1 st2">AEP /PROJ</text>
	</g>
	<g>
		<text transform="matrix(1 0 0 1 322.5859 48.0376)" class="st3 st1 st4">피그마(협업툴)</text>
		<text transform="matrix(1 0 0 1 322.2119 32.6758)" class="st1 st2">Figma</text>
	</g>
	<text transform="matrix(1 0 0 1 322.2119 105.7729)" class="st1 st2">HTML CSS</text>
	<g>
		<text transform="matrix(1 0 0 1 322.5859 200.627)" class="st3 st1 st4">(동적 구현)</text>
		<text transform="matrix(1 0 0 1 322.2119 184.6592)" class="st1 st2">Javascript</text>
	</g>
	<g class="st5">
		<path d="M246.32,26.23c-1.38,0-2.53,0.88-2.97,2.11h-31.62c-0.43-1.23-1.59-2.11-2.97-2.11c-1.38,0-2.53,0.88-2.97,2.11h-31.62
			c-0.43-1.23-1.59-2.11-2.97-2.11s-2.53,0.88-2.97,2.11h-31.62c-0.43-1.23-1.59-2.11-2.97-2.11c-1.38,0-2.53,0.88-2.97,2.11H99.06
			c-0.43-1.23-1.59-2.11-2.97-2.11c-1.75,0-3.16,1.41-3.16,3.16s1.42,3.16,3.16,3.16c1.38,0,2.53-0.88,2.97-2.11h31.62
			c0.43,1.23,1.59,2.11,2.97,2.11c1.38,0,2.53-0.88,2.97-2.11h31.62c0.43,1.23,1.59,2.11,2.97,2.11c1.38,0,2.53-0.88,2.97-2.11
			h31.62c0.43,1.23,1.59,2.11,2.97,2.11c1.38,0,2.53-0.88,2.97-2.11h31.62c0.43,1.23,1.59,2.11,2.97,2.11
			c1.75,0,3.16-1.41,3.16-3.16S248.06,26.23,246.32,26.23z"/>
	</g>
	<g class="st5">
		<path d="M246.32,104.89c-1.38,0-2.53,0.88-2.97,2.11h-31.62c-0.43-1.23-1.59-2.11-2.97-2.11c-1.38,0-2.53,0.88-2.97,2.11h-31.62
			c-0.43-1.23-1.59-2.11-2.97-2.11s-2.53,0.88-2.97,2.11h-31.62c-0.43-1.23-1.59-2.11-2.97-2.11c-1.38,0-2.53,0.88-2.97,2.11H99.06
			c-0.43-1.23-1.59-2.11-2.97-2.11c-1.75,0-3.16,1.41-3.16,3.16s1.42,3.16,3.16,3.16c1.38,0,2.53-0.88,2.97-2.11h31.62
			c0.43,1.23,1.59,2.11,2.97,2.11c1.38,0,2.53-0.88,2.97-2.11h31.62c0.43,1.23,1.59,2.11,2.97,2.11c1.38,0,2.53-0.88,2.97-2.11
			h31.62c0.43,1.23,1.59,2.11,2.97,2.11c1.38,0,2.53-0.88,2.97-2.11h31.62c0.43,1.23,1.59,2.11,2.97,2.11
			c1.75,0,3.16-1.41,3.16-3.16S248.06,104.89,246.32,104.89z"/>
	</g>
	<g class="st5">
		<path d="M246.32,183.56c-1.38,0-2.53,0.88-2.97,2.11h-31.62c-0.43-1.23-1.59-2.11-2.97-2.11c-1.38,0-2.53,0.88-2.97,2.11h-31.62
			c-0.43-1.23-1.59-2.11-2.97-2.11s-2.53,0.88-2.97,2.11h-31.62c-0.43-1.23-1.59-2.11-2.97-2.11c-1.38,0-2.53,0.88-2.97,2.11H99.06
			c-0.43-1.23-1.59-2.11-2.97-2.11c-1.75,0-3.16,1.41-3.16,3.16c0,1.75,1.42,3.16,3.16,3.16c1.38,0,2.53-0.88,2.97-2.11h31.62
			c0.43,1.23,1.59,2.11,2.97,2.11c1.38,0,2.53-0.88,2.97-2.11h31.62c0.43,1.23,1.59,2.11,2.97,2.11c1.38,0,2.53-0.88,2.97-2.11
			h31.62c0.43,1.23,1.59,2.11,2.97,2.11c1.38,0,2.53-0.88,2.97-2.11h31.62c0.43,1.23,1.59,2.11,2.97,2.11
			c1.75,0,3.16-1.41,3.16-3.16C249.48,184.97,248.06,183.56,246.32,183.56z"/>
	</g>
	<g class="st5">
		<path d="M562.58,26.23c-1.38,0-2.53,0.88-2.97,2.11h-31.62c-0.43-1.23-1.59-2.11-2.97-2.11c-1.38,0-2.53,0.88-2.97,2.11h-31.62
			c-0.43-1.23-1.59-2.11-2.97-2.11c-1.38,0-2.53,0.88-2.97,2.11h-31.62c-0.43-1.23-1.59-2.11-2.97-2.11c-1.38,0-2.53,0.88-2.97,2.11
			h-31.62c-0.43-1.23-1.59-2.11-2.97-2.11c-1.75,0-3.16,1.41-3.16,3.16s1.42,3.16,3.16,3.16c1.38,0,2.53-0.88,2.97-2.11h31.62
			c0.43,1.23,1.59,2.11,2.97,2.11c1.38,0,2.53-0.88,2.97-2.11h31.62c0.43,1.23,1.59,2.11,2.97,2.11c1.38,0,2.53-0.88,2.97-2.11
			h31.62c0.43,1.23,1.59,2.11,2.97,2.11c1.38,0,2.53-0.88,2.97-2.11h31.62c0.43,1.23,1.59,2.11,2.97,2.11
			c1.75,0,3.16-1.41,3.16-3.16S564.33,26.23,562.58,26.23z"/>
	</g>
	<g class="st5">
		<path d="M562.58,104.89c-1.38,0-2.53,0.88-2.97,2.11h-31.62c-0.43-1.23-1.59-2.11-2.97-2.11c-1.38,0-2.53,0.88-2.97,2.11h-31.62
			c-0.43-1.23-1.59-2.11-2.97-2.11c-1.38,0-2.53,0.88-2.97,2.11h-31.62c-0.43-1.23-1.59-2.11-2.97-2.11c-1.38,0-2.53,0.88-2.97,2.11
			h-31.62c-0.43-1.23-1.59-2.11-2.97-2.11c-1.75,0-3.16,1.41-3.16,3.16s1.42,3.16,3.16,3.16c1.38,0,2.53-0.88,2.97-2.11h31.62
			c0.43,1.23,1.59,2.11,2.97,2.11c1.38,0,2.53-0.88,2.97-2.11h31.62c0.43,1.23,1.59,2.11,2.97,2.11c1.38,0,2.53-0.88,2.97-2.11
			h31.62c0.43,1.23,1.59,2.11,2.97,2.11c1.38,0,2.53-0.88,2.97-2.11h31.62c0.43,1.23,1.59,2.11,2.97,2.11
			c1.75,0,3.16-1.41,3.16-3.16S564.33,104.89,562.58,104.89z"/>
	</g>
	<g class="st5">
		<path d="M562.58,183.56c-1.38,0-2.53,0.88-2.97,2.11h-31.62c-0.43-1.23-1.59-2.11-2.97-2.11c-1.38,0-2.53,0.88-2.97,2.11h-31.62
			c-0.43-1.23-1.59-2.11-2.97-2.11c-1.38,0-2.53,0.88-2.97,2.11h-31.62c-0.43-1.23-1.59-2.11-2.97-2.11c-1.38,0-2.53,0.88-2.97,2.11
			h-31.62c-0.43-1.23-1.59-2.11-2.97-2.11c-1.75,0-3.16,1.41-3.16,3.16c0,1.75,1.42,3.16,3.16,3.16c1.38,0,2.53-0.88,2.97-2.11
			h31.62c0.43,1.23,1.59,2.11,2.97,2.11c1.38,0,2.53-0.88,2.97-2.11h31.62c0.43,1.23,1.59,2.11,2.97,2.11
			c1.38,0,2.53-0.88,2.97-2.11h31.62c0.43,1.23,1.59,2.11,2.97,2.11c1.38,0,2.53-0.88,2.97-2.11h31.62
			c0.43,1.23,1.59,2.11,2.97,2.11c1.75,0,3.16-1.41,3.16-3.16C565.74,184.97,564.33,183.56,562.58,183.56z"/>
	</g>
	<g>
		<g>
			<g>
				<circle class="st6" cx="96.3" cy="108.05" r="3.16"/>
			</g>
			<g>
				<circle class="st6" cx="133.86" cy="108.05" r="3.16"/>
			</g>
			<g>
				<circle class="st6" cx="171.41" cy="108.05" r="3.16"/>
			</g>
			<g>
				<circle class="st6" cx="208.97" cy="108.05" r="3.16"/>
			</g>
		</g>
		<g>
			<rect x="96.3" y="107.14" class="st6" width="113.21" height="1.82"/>
		</g>
	</g>
	<g>
		<g>
			<g>
				<circle class="st6" cx="96.3" cy="186.76" r="3.16"/>
			</g>
			<g>
				<circle class="st6" cx="133.86" cy="186.76" r="3.16"/>
			</g>
			<g>
				<circle class="st6" cx="171.41" cy="186.76" r="3.16"/>
			</g>
			<g>
				<circle class="st6" cx="208.97" cy="186.76" r="3.16"/>
			</g>
		</g>
		<g>
			<rect x="96.3" y="185.85" class="st6" width="113.21" height="1.82"/>
		</g>
	</g>
	<g>
		<g>
			<g>
				<circle class="st7" cx="412.52" cy="108.05" r="3.16"/>
			</g>
			<g>
				<circle class="st7" cx="450.08" cy="108.05" r="3.16"/>
			</g>
		</g>
		<g>
			<rect x="412.52" y="107.14" class="st7" width="71.49" height="1.82"/>
		</g>
	</g>
	<g>
		<g>
			<g>
				<circle class="st7" cx="412.52" cy="186.63" r="3.16"/>
			</g>
			<g>
				<circle class="st7" cx="450.08" cy="186.63" r="3.16"/>
			</g>
		</g>
		<g>
			<rect x="412.52" y="185.72" class="st7" width="37.54" height="1.82"/>
		</g>
	</g>
	<g>
		<g>
			<g>
				<circle class="st7" cx="412.52" cy="29.38" r="3.16"/>
			</g>
		</g>
	</g>
	<g>
		<g>
			<g>
				<circle class="st6" cx="96.3" cy="29.36" r="3.16"/>
			</g>
			<g>
				<circle class="st6" cx="133.86" cy="29.36" r="3.16"/>
			</g>
			<g>
				<circle class="st6" cx="171.41" cy="29.36" r="3.16"/>
			</g>
		</g>
		<g>
			<rect x="96.3" y="28.45" class="st6" width="97.92" height="1.82"/>
		</g>
	</g>
</g>
</svg>
